# xmcd
#
# Track frame offsets:
#	150
#	21683
#	37234
#	57941
#
# Disc length: 958 seconds
#
# Revision: 2
# Processed by: cddbd v1.4PL0 Copyright (c) Steve Scherf et al.
# Submitted via: audiograbber 1.81.01
#
DISCID=3803bc04
DTITLE=Barton St Blues Band - Demo
DYEAR=2002
DGENRE=Blues
TTITLE0=5 Long Years
TTITLE1=Hoochie Coochie Man
TTITLE2=Red House
TTITLE3=All You Lovin'
EXTD=
EXTT0=
EXTT1=
EXTT2=
EXTT3=
PLAYORDER=
